<svg width="17" height="16" viewBox="0 0 17 16" fill="none" xmlns="http://www.w3.org/2000/svg">
<path fill-rule="evenodd" clip-rule="evenodd" d="M8.49967 1.83331C5.09392 1.83331 2.33301 4.59422 2.33301 7.99998C2.33301 8.98735 2.56469 9.91918 2.97621 10.7454C3.14137 11.077 3.20497 11.4735 3.10076 11.863L2.70369 13.347C2.63076 13.6195 2.88012 13.8689 3.15267 13.796L4.63669 13.3989C5.02616 13.2947 5.42268 13.3583 5.75428 13.5234C6.58048 13.935 7.5123 14.1666 8.49967 14.1666C11.9054 14.1666 14.6663 11.4057 14.6663 7.99998C14.6663 4.59422 11.9054 1.83331 8.49967 1.83331ZM1.33301 7.99998C1.33301 4.04194 4.54163 0.833313 8.49967 0.833313C12.4577 0.833313 15.6663 4.04194 15.6663 7.99998C15.6663 11.958 12.4577 15.1666 8.49967 15.1666C7.35414 15.1666 6.27002 14.8975 5.30844 14.4186C5.16495 14.3471 5.01843 14.3319 4.89517 14.3649L3.41114 14.762C2.39525 15.0338 1.46586 14.1044 1.73767 13.0885L2.13474 11.6045C2.16773 11.4812 2.15256 11.3347 2.08109 11.1912C1.60215 10.2296 1.33301 9.14552 1.33301 7.99998ZM5.33301 6.99998C5.33301 6.72384 5.55687 6.49998 5.83301 6.49998H11.1663C11.4425 6.49998 11.6663 6.72384 11.6663 6.99998C11.6663 7.27612 11.4425 7.49998 11.1663 7.49998H5.83301C5.55687 7.49998 5.33301 7.27612 5.33301 6.99998ZM5.33301 9.33331C5.33301 9.05717 5.55687 8.83331 5.83301 8.83331H9.49967C9.77582 8.83331 9.99967 9.05717 9.99967 9.33331C9.99967 9.60946 9.77582 9.83331 9.49967 9.83331H5.83301C5.55687 9.83331 5.33301 9.60946 5.33301 9.33331Z" fill="#877EFF"/>
</svg>
