<svg width="97" height="77" viewBox="0 0 97 77" fill="none" xmlns="http://www.w3.org/2000/svg">
<path d="M17.0168 24.0901H17.3119C20.066 23.8934 22.1316 21.5327 22.0332 18.7786C21.8365 16.0245 19.4759 13.959 16.7218 14.0573C13.9677 14.1557 11.9021 16.6147 12.0004 19.3688C12.0988 22.0245 14.3611 24.0901 17.0168 24.0901ZM14.6562 17.0081C15.148 16.418 15.9349 16.0245 16.7218 16.0245H16.9185C18.5906 16.0245 19.9677 17.4016 19.9677 19.0737C19.9677 20.7459 18.5906 22.1229 16.9185 22.1229C15.2463 22.1229 13.8693 20.7459 13.8693 19.0737C13.8693 18.2868 14.1644 17.5983 14.6562 17.0081Z" fill="#5C5C7B"/>
<path d="M84.2958 18.582L58.0335 17.1066L57.8368 14.1558C57.5417 8.54922 52.7221 4.22135 47.0171 4.51643L13.6729 6.38529C8.06631 6.68037 3.73844 11.5984 4.03352 17.205L5.90238 50.6476V51.4345C6.5909 56.5492 10.9188 60.3853 16.0335 60.3853H16.6237L37.968 59.205V59.7951C37.6729 65.4017 41.9024 70.3197 47.6073 70.6148L81.0499 72.582H81.6401C87.0499 72.582 91.5745 68.3525 91.8696 62.9427L93.8368 29.5C94.2303 23.7951 89.9024 18.9755 84.2958 18.582ZM8.06631 11.1066C9.54172 9.43447 11.6073 8.45086 13.7712 8.3525L47.2139 6.48365C51.7384 6.18857 55.6729 9.72955 55.968 14.2541L56.1647 17.0082L50.9516 16.7132C45.345 16.4181 40.427 20.6476 40.1319 26.3525L39.5417 35.6968L30.1975 46.2214C30.0007 46.5164 29.6073 46.6148 29.2139 46.7132C28.8204 46.7132 28.5253 46.6148 28.2302 46.3197L20.5581 39.4345C19.1811 38.1558 17.1155 38.3525 15.8368 39.7296L7.86959 48.6804L6.0991 17.205C5.90238 14.9427 6.68926 12.7787 8.06631 11.1066ZM16.6237 58.3197C12.3942 58.5164 8.65648 55.5656 7.96795 51.3361L17.2139 41.0082C17.4106 40.7132 17.804 40.6148 18.1975 40.5164C18.5909 40.5164 18.886 40.6148 19.1811 40.9099L26.8532 47.7951C27.5417 48.3853 28.427 48.6804 29.3122 48.6804C30.1975 48.6804 30.9843 48.1886 31.5745 47.5984L39.2466 38.9427L38.1647 57.2378L16.6237 58.3197ZM91.8696 29.3033L89.9024 62.7459C89.6073 67.2705 85.6729 70.8115 81.1483 70.5164L47.7057 68.5492C43.1811 68.2541 39.6401 64.3197 39.9352 59.7951L41.9024 26.3525C42.1975 22.0246 45.7384 18.582 50.1647 18.582H50.6565L84.0991 20.5492C88.7221 20.8443 92.1647 24.7787 91.8696 29.3033Z" fill="#5C5C7B"/>
<path d="M77.9027 41.4016L61.2797 30.4836C59.2141 29.1065 56.46 29.6967 55.1813 31.7623C54.7879 32.4508 54.4928 33.1393 54.4928 33.9262L53.3125 53.6967C53.2141 56.1557 54.9846 58.2213 57.4436 58.418H57.7387C58.4273 58.418 59.1158 58.2213 59.7059 57.9262L77.4109 49.0738C79.5748 47.9918 80.46 45.3361 79.3781 43.1721C78.9846 42.4836 78.4928 41.8934 77.9027 41.4016ZM76.5256 47.3033L58.8207 56.1557C58.4273 56.3524 58.0338 56.4508 57.542 56.4508C57.1486 56.4508 56.6568 56.2541 56.3617 56.0574C55.6732 55.5656 55.1814 54.7787 55.2797 53.8934L56.46 34.1229C56.5584 33.2377 57.0502 32.4508 57.8371 32.0574C58.624 31.6639 59.5092 31.7623 60.2961 32.1557L76.7223 43.0738C77.9027 43.8606 78.1977 45.3361 77.4109 46.418C77.2141 46.8115 76.9191 47.1065 76.5256 47.3033Z" fill="#5C5C7B"/>
</svg>
